<svg width="500" height="500" viewBox="0 0 500 500" fill="none" xmlns="http://www.w3.org/2000/svg">
  <!-- Center Hub -->
  <circle cx="250" cy="250" r="40" fill="#93C5FD" />
  
  <!-- Surrounding Nodes -->
  <circle cx="250" cy="100" r="25" fill="#93C5FD" />
  <circle cx="380" cy="175" r="25" fill="#93C5FD" />
  <circle cx="380" cy="325" r="25" fill="#93C5FD" />
  <circle cx="250" cy="400" r="25" fill="#93C5FD" />
  <circle cx="120" cy="325" r="25" fill="#93C5FD" />
  <circle cx="120" cy="175" r="25" fill="#93C5FD" />

  <!-- Connections -->
  <path d="M250 210 L250 125" stroke="#93C5FD" stroke-width="12" stroke-linecap="round" />
  <path d="M285 230 L358 190" stroke="#93C5FD" stroke-width="12" stroke-linecap="round" />
  <path d="M285 270 L358 310" stroke="#93C5FD" stroke-width="12" stroke-linecap="round" />
  <path d="M250 290 L250 375" stroke="#93C5FD" stroke-width="12" stroke-linecap="round" />
  <path d="M215 270 L142 310" stroke="#93C5FD" stroke-width="12" stroke-linecap="round" />
  <path d="M215 230 L142 190" stroke="#93C5FD" stroke-width="12" stroke-linecap="round" />
  
  <!-- Outer Connections (Ring effect) -->
  <path d="M250 100 L380 175" stroke="#93C5FD" stroke-width="6" stroke-opacity="0.5" stroke-dasharray="10 10" />
  <path d="M380 175 L380 325" stroke="#93C5FD" stroke-width="6" stroke-opacity="0.5" stroke-dasharray="10 10" />
  <path d="M380 325 L250 400" stroke="#93C5FD" stroke-width="6" stroke-opacity="0.5" stroke-dasharray="10 10" />
  <path d="M250 400 L120 325" stroke="#93C5FD" stroke-width="6" stroke-opacity="0.5" stroke-dasharray="10 10" />
  <path d="M120 325 L120 175" stroke="#93C5FD" stroke-width="6" stroke-opacity="0.5" stroke-dasharray="10 10" />
  <path d="M120 175 L250 100" stroke="#93C5FD" stroke-width="6" stroke-opacity="0.5" stroke-dasharray="10 10" />
</svg>